OpenSim_Sub05_CSBaseline_RCS.mot
version=1
nRows=60
nColumns=11
inDegrees=no
endheader
time	Top_Thigh	Med_Thigh	Bot_Thigh	Top_Shank	2nd_Top_Shank	2nd_Bot_Shank	Bot_Shank	BNOx	BNOy	BNOZ
79.17000000	1200.61051846	1307.80546597	1164.79487962	1108.88302652	1294.23631022	1035.40501999	1068.57613564	0	0	0
79.18000000	1203.40461131	1305.74086157	1163.57999793	1109.34144111	1294.24002581	1035.78273633	1068.25681336	0	0	0
79.19000000	1206.09135925	1303.85874345	1162.40724103	1109.80324218	1294.32112895	1036.15394179	1067.92906742	0	0	0
79.20000000	1208.43954501	1302.19891181	1161.34673726	1110.25986537	1294.48899179	1036.50283231	1067.59263237	0	0	0
79.21000000	1210.21795127	1300.80116687	1160.46861494	1110.70274626	1294.75298648	1036.81360383	1067.24724279	0	0	0
79.22000000	1211.19730906	1299.70477565	1159.84244201	1111.12322984	1295.12214483	1037.07061653	1066.89266568	0	0	0
79.23000000	1211.29909106	1298.90775358	1159.49442861	1111.50564793	1295.57916633	1037.27093943	1066.53117756	0	0	0
79.24000000	1210.70028750	1298.33819170	1159.37729041	1111.82244457	1296.06211541	1037.43318390	1066.16930874	0	0	0
79.25000000	1209.60263943	1297.91740782	1159.43662403	1112.04491231	1296.50473289	1037.57804798	1065.81400156	0	0	0
79.26000000	1208.20788787	1297.56671975	1159.61802607	1112.14434369	1296.84075960	1037.72622973	1065.47219838	0	0	0
79.27000000	1206.71777385	1297.20744530	1159.86709314	1112.09203124	1297.00393635	1037.89842722	1065.15084155	0	0	0
79.28000000	1205.32942428	1296.76339642	1160.13008343	1111.86022577	1296.92974156	1038.11426461	1064.85653294	0	0	0
79.29000000	1204.13384070	1296.21575027	1160.36847149	1111.44321815	1296.59361809	1038.36866689	1064.58804325	0	0	0
79.30000000	1203.11589937	1295.60304926	1160.55894826	1110.85733935	1296.01097325	1038.63185981	1064.33631204	0	0	0
79.31000000	1202.25586239	1294.96632992	1160.67886621	1110.11987856	1295.19895194	1038.87299526	1064.09193835	0	0	0
79.32000000	1201.53399186	1294.34662879	1160.70557787	1109.24812502	1294.17469906	1039.06122512	1063.84552124	0	0	0
79.33000000	1200.93054988	1293.78498240	1160.61643571	1108.25936793	1292.95535951	1039.16570127	1063.58765977	0	0	0
79.34000000	1200.42579856	1293.32242729	1160.38879226	1107.17089652	1291.55807819	1039.15557561	1063.30895301	0	0	0
79.35000000	1200	1293	1160	1106	1290	1039	1063	0	0	0
79.36000000	1199.64103946	1292.85034477	1159.45885114	1104.77287105	1288.31258125	1038.68176447	1062.65656477	0	0	0
79.37000000	1199.36729491	1292.87253663	1158.89989669	1103.55131624	1286.58452397	1038.23821159	1062.29507118	0	0	0
79.38000000	1199.20476744	1293.05725835	1158.48912736	1102.40604559	1284.91884159	1037.72032204	1061.93710805	0	0	0
79.39000000	1199.17945820	1293.39519265	1158.39253386	1101.40776913	1283.41854754	1037.17907652	1061.60426420	0	0	0
79.40000000	1199.31736829	1293.87702229	1158.77610690	1100.62719689	1282.18665526	1036.66545573	1061.31812847	0	0	0
79.41000000	1199.64449884	1294.49343002	1159.80583720	1100.13503890	1281.32617820	1036.23044037	1061.10028967	0	0	0
79.42000000	1200.18639319	1295.23492385	1161.64574175	1100.00080934	1280.93864883	1035.92424148	1060.97195944	0	0	0
79.43000000	1200.93317604	1296.07849305	1164.30713095	1100.20149977	1281.01101791	1035.73752299	1060.92516677	0	0	0
79.44000000	1201.81493509	1296.97821169	1167.54246683	1100.55726947	1281.33601219	1035.56001226	1060.90247395	0	0	0
79.45000000	1202.75594250	1297.88593412	1171.07913804	1100.87308611	1281.68754485	1035.27165941	1060.84165172	0	0	0
79.46000000	1203.68047045	1298.75351471	1174.64453320	1100.95391736	1281.83952911	1034.75241456	1060.68047079	0	0	0
79.47000000	1204.51279111	1299.53280784	1177.96604096	1100.60473089	1281.56587813	1033.88222784	1060.35670187	0	0	0
79.48000000	1205.17761692	1300.17596088	1180.77271228	1099.63199986	1280.64227755	1032.54211016	1059.80863804	0	0	0
79.49000000	1205.63372199	1300.65779205	1182.92221338	1097.95867793	1278.98154671	1030.69514785	1059.01498658	0	0	0
79.50000000	1205.89761742	1300.99154813	1184.49022227	1095.70516130	1276.72895612	1028.44355069	1058.02295975	0	0	0
79.51000000	1205.99140700	1301.19419834	1185.57353475	1093.01097148	1274.05229277	1025.90300468	1056.88640552	0	0	0
79.52000000	1205.93719454	1301.28271188	1186.26894659	1090.01562999	1271.11934360	1023.18919584	1055.65917187	0	0	0
79.53000000	1205.75708384	1301.27405796	1186.67325358	1086.85865834	1268.09789561	1020.41781019	1054.39510680	0	0	0
79.54000000	1205.47317869	1301.18520578	1186.88325151	1083.67957804	1265.15573575	1017.70453373	1053.14805829	0	0	0
79.55000000	1205.10758290	1301.03312455	1186.99573616	1080.61791062	1262.46065099	1015.16505249	1051.97187433	0	0	0
79.56000000	1204.68240026	1300.83478346	1187.10750333	1077.81317759	1260.18042830	1012.91505247	1050.92040290	0	0	0
79.57000000	1204.21973457	1300.60715172	1187.31534880	1075.40490047	1258.48285466	1011.07021970	1050.04749199	0	0	0
79.58000000	1203.74168964	1300.36719855	1187.71606834	1073.53260077	1257.53571703	1009.74624018	1049.40698959	0	0	0
79.59000000	1203.27036926	1300.13189313	1188.40645776	1072.33580001	1257.50680238	1009.05879992	1049.05274367	0	0	0
79.60000000	1202.82766119	1299.91811550	1189.48076529	1071.95077666	1258.55911279	1009.12044961	1049.03688294	0	0	0
79.61000000	1202.42705425	1299.73927861	1190.93420322	1072.38773542	1260.66963776	1009.92185375	1049.34469861	0	0	0
79.62000000	1202.07112681	1299.60429158	1192.63333263	1073.49310674	1263.57372985	1011.29534238	1049.87465766	0	0	0
79.63000000	1201.76172805	1299.52176254	1194.43611663	1075.10237579	1266.99059264	1013.06266379	1050.51942446	0	0	0
79.64000000	1201.50070715	1299.50029962	1196.20051835	1077.05102770	1270.63942970	1015.04556627	1051.17166336	0	0	0
79.65000000	1201.28991331	1299.54851093	1197.78450089	1079.17454761	1274.23944458	1017.06579810	1051.72403874	0	0	0
79.66000000	1201.13119571	1299.67500461	1199.04602736	1081.30842068	1277.50984086	1018.94510757	1052.06921495	0	0	0
79.67000000	1201.02640353	1299.88838878	1199.84306088	1083.28813206	1280.16982211	1020.50524297	1052.09985636	0	0	0
79.68000000	1200.97959335	1300.19423343	1200.04232195	1084.95721570	1281.95533220	1021.57820095	1051.71624945	0	0	0
79.69000000	1201.02785068	1300.55264909	1199.64156750	1086.27963987	1282.85279961	1022.14932420	1050.93272995	0	0	0
79.70000000	1201.23368680	1300.88875150	1198.73942661	1087.31208338	1283.04147636	1022.32200146	1049.85142897	0	0	0
79.71000000	1201.66026702	1301.12675623	1197.43712313	1088.11360986	1282.70557455	1022.20265805	1048.57673601	0	0	0
79.72000000	1202.37075664	1301.19087882	1195.83588088	1088.74328298	1282.02930630	1021.89771925	1047.21304059	0	0	0
79.73000000	1203.42832100	1301.00533483	1194.03692373	1089.26016636	1281.19688372	1021.51361038	1045.86473219	0	0	0
79.74000000	1204.89612538	1300.49433982	1192.14147552	1089.72332366	1280.39251891	1021.15675675	1044.63620034	0	0	0
79.75000000	1206.83443969	1299.58467638	1190.24932225	1090.19047977	1279.79773602	1020.93152515	1043.63007757	0	0	0
79.76000000	1209.19097401	1298.30292051	1188.40435382	1090.66731559	1279.48956429	1020.86225864	1042.88069466	0	0	0
